<?xml version="1.0" encoding="UTF-8"?>
<!DOCTYPE svg PUBLIC "-//W3C//DTD SVG 1.1//EN" "http://www.w3.org/Graphics/SVG/1.1/DTD/svg11.dtd">
<!-- Creator: CorelDRAW X7 -->
<svg xmlns="http://www.w3.org/2000/svg" xml:space="preserve" width="3300px" height="2550px" version="1.1" style="shape-rendering:geometricPrecision; text-rendering:geometricPrecision; image-rendering:optimizeQuality; fill-rule:evenodd; clip-rule:evenodd"
viewBox="0 0 3300 2550"
 xmlns:xlink="http://www.w3.org/1999/xlink">
 <defs>
  <style type="text/css">
   <![CDATA[
    .fil1 {fill:#E6E7E8}
    .fil2 {fill:white}
    .fil7 {fill:url(#id0)}
    .fil3 {fill:url(#id1)}
    .fil8 {fill:url(#id2)}
    .fil4 {fill:url(#id3)}
    .fil6 {fill:url(#id4)}
    .fil5 {fill:url(#id5)}
    .fil0 {fill:url(#id6)}
   ]]>
  </style>
  <linearGradient id="id0" gradientUnits="userSpaceOnUse" x1="1475.26" y1="1918.66" x2="1475.26" y2="1420.26">
   <stop offset="0" style="stop-opacity:1; stop-color:#E65114"/>
   <stop offset="1" style="stop-opacity:1; stop-color:#ECAA73"/>
  </linearGradient>
  <linearGradient id="id1" gradientUnits="userSpaceOnUse" xlink:href="#id0" x1="2940.2" y1="644.536" x2="2495.49" y2="1808.69">
  </linearGradient>
  <linearGradient id="id2" gradientUnits="userSpaceOnUse" xlink:href="#id0" x1="161.692" y1="1517.98" x2="1139.49" y2="1337.32">
  </linearGradient>
  <linearGradient id="id3" gradientUnits="userSpaceOnUse" xlink:href="#id0" x1="3095.4" y1="1802.95" x2="3062.11" y2="1936.48">
  </linearGradient>
  <linearGradient id="id4" gradientUnits="userSpaceOnUse" xlink:href="#id0" x1="2096.21" y1="1907.88" x2="2096.21" y2="1434.67">
  </linearGradient>
  <linearGradient id="id5" gradientUnits="userSpaceOnUse" xlink:href="#id0" x1="2830.76" y1="1676.33" x2="2791.19" y2="1936.84">
  </linearGradient>
  <radialGradient id="id6" gradientUnits="userSpaceOnUse" gradientTransform="matrix(0.00607788 0.206933 -1.04166 0.0167871 3824 1701)" cx="1666.75" cy="2080.56" r="631.531" fx="1666.75" fy="2080.56">
   <stop offset="0" style="stop-opacity:1; stop-color:#B8B3B3"/>
   <stop offset="0.478431" style="stop-opacity:1; stop-color:#DBD9D9"/>
   <stop offset="1" style="stop-opacity:0.0588235; stop-color:#FEFEFE"/>
  </radialGradient>
 </defs>
 <g id="Capa_x0020_1">
  <metadata id="CorelCorpID_0Corel-Layer"/>
  <path class="fil0" d="M1667 1846c363,-1 657,99 658,224 0,124 -295,226 -658,227 -363,1 -658,-99 -658,-224 0,-124 294,-226 658,-227z"/>
  <ellipse class="fil1" cx="3112" cy="1866" rx="56" ry="61"/>
  <path class="fil1" d="M2708 1698c-9,-5 -20,-2 -10,9 65,55 113,98 231,187 15,6 24,6 31,-3 9,-11 19,-36 13,-50 -6,-12 -25,-31 -45,-40 -78,-30 -144,-67 -220,-103z"/>
  <path class="fil1" d="M3021 651c-34,-31 -97,-50 -130,-81 -12,126 -7,256 -53,388 -101,293 -291,656 -373,876 -18,51 -6,64 28,18 141,-191 306,-325 554,-283 4,-63 12,-119 16,-181 -35,-87 -294,38 -534,379 46,-181 214,-410 289,-581 92,-209 164,-389 203,-535z"/>
  <path class="fil1" d="M2060 1420c-16,2 -30,9 -41,35 -36,149 -85,265 -130,388 -9,23 -22,39 13,35 43,-6 75,-41 100,-74 77,-99 169,-218 242,-283 21,-16 40,-27 52,-28 32,-3 3,48 -3,59 -30,55 -49,97 -60,133 -18,56 -40,129 13,171 34,27 80,14 134,-10 10,-13 -17,-38 -32,-29 -49,29 -41,17 -50,-13 -13,-47 2,-89 19,-134 12,-35 29,-73 51,-114 15,-29 75,-133 25,-148 -52,-16 -125,48 -161,81 -74,67 -151,150 -228,241 32,-84 60,-169 96,-250 18,-42 15,-64 -40,-60z"/>
  <path class="fil1" d="M1155 1707c20,-63 53,-124 109,-182 30,-31 -13,-27 30,-27 34,0 97,2 78,24 -13,15 -32,30 -46,47 -44,50 -79,100 -102,151 -15,30 -30,73 -33,108 -5,69 68,33 100,12 23,-16 42,-37 63,-61 56,-66 94,-124 130,-185 9,-15 -16,-39 0,-40 8,-1 82,5 90,8 27,11 3,28 -10,57 -24,56 -37,101 -44,137 -6,28 -12,82 2,106 17,28 60,19 134,-39 92,-75 163,-159 189,-260 9,-33 11,-68 -5,-101 -11,-23 -29,-29 -48,-33 -8,-1 -22,-2 -28,-5 -7,-2 -10,-8 1,-12 10,-3 20,-4 29,-4 36,-2 70,1 90,22 27,29 25,79 17,115 -6,31 -21,62 -41,96 -40,69 -109,141 -170,193 -35,32 -72,57 -114,66 -79,18 -125,-8 -131,-90 -2,-31 0,-70 8,-120 -34,56 -68,110 -108,150 -41,41 -98,72 -157,52 -12,-4 -22,-10 -30,-19 -39,-43 -19,-117 -3,-166z"/>
  <path class="fil1" d="M701 1091c68,-2 105,26 126,69 -227,-86 -489,217 -494,443 -28,380 332,387 533,185 206,-208 289,-495 237,-664 -86,-194 -273,-200 -454,-148 -258,92 -343,222 -411,355 -17,38 -30,81 -34,140 0,27 -16,45 -27,-32 -9,-84 32,-175 102,-271 52,-70 115,-125 189,-168 131,-75 260,-103 408,-78 140,24 226,83 289,212 59,122 31,282 -19,402 -40,98 -103,186 -180,254 -95,85 -197,141 -310,155 -277,36 -406,-150 -397,-421 11,-116 52,-199 111,-264 84,-93 205,-166 331,-169z"/>
  <ellipse class="fil2" transform="matrix(1.96728 0.0312582 -0.0375781 1.84403 3107.45 1867.57)" rx="29" ry="34"/>
  <path class="fil2" d="M3017 643c-36,-31 -98,-48 -132,-79 -11,127 -8,255 -54,388 -102,294 -348,688 -407,916 -8,31 32,11 35,13 2,2 12,-9 31,-35 170,-225 332,-316 551,-280 4,-63 15,-122 19,-184 -22,-80 -268,24 -534,379 46,-182 210,-410 286,-581 93,-209 166,-390 205,-537z"/>
  <path class="fil2" d="M2699 1696c-8,-5 -20,-2 -10,9 65,56 101,122 218,212 15,6 34,0 41,-9 9,-11 24,-53 19,-67 -5,-12 -25,-31 -45,-40 -78,-31 -148,-68 -223,-105z"/>
  <path class="fil3" d="M2981 659c-33,-31 -72,-61 -105,-92 -13,126 -34,266 -81,397 -105,292 -309,645 -370,871 -17,61 -19,68 21,16 169,-221 349,-347 561,-307 5,-63 10,-126 15,-189 -137,3 -300,96 -526,418 48,-181 199,-411 276,-581 94,-207 169,-387 209,-533z"/>
  <circle class="fil4" cx="3079" cy="1870" r="61"/>
  <path class="fil5" d="M2694 1696c-9,-5 -20,-4 -11,8 59,61 102,110 211,210 14,7 25,8 34,0 10,-10 18,-46 13,-60 -4,-12 -15,-24 -35,-34 -74,-38 -141,-80 -212,-124z"/>
  <path class="fil2" d="M2056 1416c-17,2 -31,9 -41,35 -36,149 -20,316 -131,388 -65,43 -15,42 20,38 43,-6 68,-44 93,-77 77,-99 169,-218 243,-283 21,-16 40,-27 52,-28 32,-3 2,48 -4,59 -30,55 -48,97 -60,133 -17,56 -40,129 13,171 35,27 73,23 127,-1 23,-10 -7,-42 -26,-34 -48,29 -40,13 -48,-17 -14,-47 2,-89 18,-134 13,-35 30,-73 51,-114 15,-29 76,-133 26,-148 -52,-16 -126,48 -162,81 -74,67 -150,150 -228,241 32,-84 60,-169 97,-251 18,-41 14,-63 -40,-59z"/>
  <path class="fil6" d="M2011 1450c-17,1 -31,9 -41,34 -36,150 -86,265 -131,388 -8,24 -22,40 13,35 44,-5 75,-41 100,-74 77,-99 169,-218 242,-283 22,-15 40,-27 52,-28 32,-2 3,48 -3,60 -30,54 -48,97 -60,132 -18,56 -40,129 13,171 35,28 83,18 138,-5 22,-10 9,-38 -10,-30 -48,29 -67,14 -75,-16 -14,-47 1,-90 18,-135 13,-35 30,-73 51,-113 15,-30 76,-133 26,-149 -52,-16 -126,48 -162,81 -74,67 -150,150 -228,241 32,-84 60,-169 96,-250 19,-42 15,-64 -39,-59z"/>
  <path class="fil2" d="M1148 1703c20,-63 54,-124 109,-182 31,-30 -23,-26 20,-26 34,0 107,1 88,23 -13,15 -31,31 -46,47 -44,50 -78,100 -102,151 -14,31 -30,74 -32,108 -6,69 67,34 99,12 23,-16 43,-37 63,-61 56,-66 94,-124 130,-185 9,-15 -15,-38 1,-39 8,-1 81,4 89,7 27,11 3,28 -10,57 -23,56 -37,101 -44,137 -6,28 -12,82 3,106 17,28 59,19 133,-39 92,-75 163,-159 189,-260 9,-33 12,-68 -4,-101 -12,-23 -30,-29 -49,-33 -8,-1 -22,-2 -28,-4 -7,-3 -10,-9 1,-13 10,-3 20,-4 30,-4 36,-2 69,1 89,22 28,29 26,79 18,115 -7,31 -22,62 -42,96 -39,69 -109,141 -169,194 -36,31 -73,56 -115,66 -79,17 -124,-9 -131,-91 -2,-30 0,-70 8,-120 -34,56 -68,110 -108,150 -41,41 -97,72 -157,52 -11,-4 -21,-10 -30,-19 -39,-43 -19,-117 -3,-166z"/>
  <path class="fil7" d="M1109 1720c20,-63 54,-124 109,-182 30,-31 26,-31 69,-31 34,0 58,6 39,28 -13,15 -31,30 -46,47 -44,50 -78,100 -102,150 -14,31 -30,74 -32,109 -6,69 67,33 99,12 23,-16 43,-37 63,-61 56,-66 94,-124 130,-186 9,-14 18,-42 35,-44 7,0 47,10 55,13 27,11 3,28 -10,57 -23,56 -37,100 -44,137 -6,28 -12,82 2,106 17,28 60,18 134,-39 92,-75 163,-159 189,-260 9,-33 12,-68 -4,-101 -12,-23 -30,-29 -49,-33 -8,-1 -22,-2 -28,-5 -7,-2 -10,-8 1,-12 10,-4 20,-4 30,-4 36,-2 69,1 89,22 28,29 25,79 18,115 -7,31 -22,62 -42,96 -39,69 -109,141 -169,193 -36,32 -73,57 -115,66 -79,18 -125,-8 -131,-90 -2,-31 0,-70 8,-120 -34,56 -68,110 -108,150 -41,41 -98,72 -157,52 -11,-4 -21,-10 -30,-19 -39,-43 -19,-117 -3,-166z"/>
  <path class="fil2" d="M692 1092c68,-1 105,27 126,69 -227,-86 -489,218 -494,443 -28,380 333,388 534,185 206,-207 289,-495 237,-664 -87,-194 -274,-200 -454,-147 -259,91 -344,221 -413,355 -16,37 -30,80 -34,139 1,27 -15,45 -26,-32 -9,-83 31,-174 102,-271 52,-69 115,-125 189,-168 131,-75 260,-103 408,-77 141,24 227,83 290,211 59,123 31,282 -19,403 -41,98 -103,185 -180,254 -95,85 -198,140 -311,155 -277,36 -406,-151 -397,-421 10,-116 52,-199 111,-265 84,-92 205,-166 331,-169z"/>
  <path class="fil8" d="M664 1087c67,-1 102,27 123,69 -221,-86 -477,217 -482,443 -27,380 325,388 521,185 200,-207 281,-495 230,-664 -84,-194 -266,-200 -442,-147 -252,91 -335,221 -402,354 -16,38 -30,93 -34,152 9,21 -5,26 -25,-44 -9,-84 31,-174 100,-271 50,-69 112,-125 184,-168 128,-75 253,-103 398,-78 136,24 221,83 282,212 57,122 30,282 -19,403 -39,98 -100,185 -175,254 -93,85 -192,140 -303,155 -269,35 -396,-151 -387,-421 10,-116 51,-200 108,-265 82,-92 200,-166 323,-169z"/>
 </g>
</svg>
