<?xml version="1.0" encoding="utf-8"?>
<!-- Generator: Adobe Illustrator 16.0.0, SVG Export Plug-In . SVG Version: 6.00 Build 0)  -->
<!DOCTYPE svg PUBLIC "-//W3C//DTD SVG 1.1//EN" "http://www.w3.org/Graphics/SVG/1.1/DTD/svg11.dtd">
<svg version="1.1" id="Capa_1" xmlns="http://www.w3.org/2000/svg" xmlns:xlink="http://www.w3.org/1999/xlink" x="0px" y="0px"
	 width="1178.5px" height="1355.503px" viewBox="0 0 1178.5 1355.503" enable-background="new 0 0 1178.5 1355.503"
	 xml:space="preserve">
<radialGradient id="SVGID_1_" cx="-5236.0342" cy="-2287.6274" r="631.4347" gradientTransform="matrix(0.0038 0.1555 0.6491 -0.0126 2084.7148 2000.717)" gradientUnits="userSpaceOnUse">
	<stop  offset="0" style="stop-color:#B8B3B3"/>
	<stop  offset="1" style="stop-color:#FEFEFE;stop-opacity:0"/>
</radialGradient>
<path fill="url(#SVGID_1_)" d="M579.916,1038.63c226.186-0.751,409.377,74.416,410,168.375c0,93.207-183.814,169.877-410,170.629
	s-410-74.415-410-168.374C169.916,1116.053,353.107,1039.382,579.916,1038.63z"/>
<ellipse fill="#E6E7E8" cx="1020.519" cy="1022.624" rx="56" ry="61"/>
<path fill="#E6E7E8" d="M618.519,247.987c68-2,105,26,126,69c-227-86-489,217-494,443c-28,380,332,387,533,185
	c206-208,289-495,237-664c-86-194-273-200-454-148c-258,92-343,222-411,355c-17,38-30,81-34,140c0,27-16,45-27-32
	c-9-84,32-175,102-271c52-70,115-125,189-168c131-75,260-103,408-78c140,24,226,83,289,212c59,122,31,282-19,402
	c-40,98-103,186-180,254c-95,85-197,141-310,155c-277,36-406-150-397-421c11-116,52-199,111-264
	C371.519,323.987,492.519,250.987,618.519,247.987z"/>
<path fill="#FFFFFF" d="M1017.247,961.497c31.509,0.5,56.479,28.977,55.773,63.604s-26.82,62.291-58.329,61.79
	c-31.508-0.5-56.479-28.977-55.773-63.604C959.624,988.661,985.738,960.996,1017.247,961.497z"/>
<path fill="#FFFFFF" d="M609.519,248.987c68-1,105,27,126,69c-227-86-489,218-494,443c-28,380,333,388,534,185
	c206-207,289-495,237-664c-87-194-274-200-454-147c-259,91-344,221-413,355c-16,37-30,80-34,139c1,27-15,45-26-32
	c-9-83,31-174,102-271c52-69,115-125,189-168c131-75,260-103,408-77c141,24,227,83,290,211c59,123,31,282-19,403
	c-41,98-103,185-180,254c-95,85-198,140-311,155c-277,36-406-151-397-421c10-116,52-199,111-265
	C362.519,325.987,483.519,251.987,609.519,248.987z"/>
<linearGradient id="SVGID_2_" gradientUnits="userSpaceOnUse" x1="78.9551" y1="1877.417" x2="1056.7526" y2="2058.0769" gradientTransform="matrix(1 0 0 -1 0 2551)">
	<stop  offset="0.0098" style="stop-color:#FFFFFF"/>
	<stop  offset="1" style="stop-color:#FFFFFF"/>
</linearGradient>
<path fill="url(#SVGID_2_)" d="M581.519,243.987c67-1,102,27,123,69c-221-86-477,217-482,443c-27,380,325,388,521,185
	c200-207,281-495,230-664c-84-194-266-200-442-147c-252,91-335,221-402,354c-16,38-30,93-34,152c9,21-5,26-25-44
	c-9-84,31-174,100-271c50-69,112-125,184-168c128-75,253-103,398-78c136,24,221,83,282,212c57,122,30,282-19,403
	c-39,98-100,185-175,254c-93,85-192,140-303,155c-269,35-396-151-387-421c10-116,51-200,108-265
	C340.519,320.987,458.519,246.987,581.519,243.987z"/>
</svg>
