<?xml version="1.0" encoding="utf-8"?>
<!-- Generator: Adobe Illustrator 16.0.0, SVG Export Plug-In . SVG Version: 6.00 Build 0)  -->
<!DOCTYPE svg PUBLIC "-//W3C//DTD SVG 1.1//EN" "http://www.w3.org/Graphics/SVG/1.1/DTD/svg11.dtd">
<svg version="1.1" id="Capa_1" xmlns="http://www.w3.org/2000/svg" xmlns:xlink="http://www.w3.org/1999/xlink" x="0px" y="0px"
	 width="3300px" height="1767px" viewBox="0 0 3300 1767" enable-background="new 0 0 3300 1767" xml:space="preserve">
<g id="Capa_x0020_1">
	
		<radialGradient id="SVGID_1_" cx="-3901.4165" cy="-1657.1777" r="631.4362" gradientTransform="matrix(0.0061 0.2069 1.0417 -0.0168 3419.1936 2330.3381)" gradientUnits="userSpaceOnUse">
		<stop  offset="0" style="stop-color:#B8B3B3"/>
		<stop  offset="0.4784" style="stop-color:#DBD9D9"/>
		<stop  offset="1" style="stop-color:#FEFEFE;stop-opacity:0.0588"/>
	</radialGradient>
	<path fill="url(#SVGID_1_)" d="M1669,1316c363-1,657,99,658,224c0,124-295,226-658,227s-658-99-658-224
		C1011,1419,1305,1317,1669,1316z"/>
	<ellipse fill="#E6E7E8" cx="3114" cy="1336" rx="56" ry="61"/>
	<path fill="#E6E7E8" d="M2710,1168c-9-5-20-2-10,9c65,55,113,98,231,187c15,6,24,6,31-3c9-11,19-36,13-50c-6-12-25-31-45-40
		C2852,1241,2786,1204,2710,1168z"/>
	<path fill="#E6E7E8" d="M3023,121c-34-31-97-50-130-81c-12,126-7,256-53,388c-101,293-291,656-373,876c-18,51-6,64,28,18
		c141-191,306-325,554-283c4-63,12-119,16-181c-35-87-294,38-534,379c46-181,214-410,289-581C2912,447,2984,267,3023,121z"/>
	<path fill="#E6E7E8" d="M2062,890c-16,2-30,9-41,35c-36,149-85,265-130,388c-9,23-22,39,13,35c43-6,75-41,100-74
		c77-99,169-218,242-283c21-16,40-27,52-28c32-3,3,48-3,59c-30,55-49,97-60,133c-18,56-40,129,13,171c34,27,80,14,134-10
		c10-13-17-38-32-29c-49,29-41,17-50-13c-13-47,2-89,19-134c12-35,29-73,51-114c15-29,75-133,25-148c-52-16-125,48-161,81
		c-74,67-151,150-228,241c32-84,60-169,96-250C2120,908,2117,886,2062,890z"/>
	<path fill="#E6E7E8" d="M1157,1177c20-63,53-124,109-182c30-31-13-27,30-27c34,0,97,2,78,24c-13,15-32,30-46,47
		c-44,50-79,100-102,151c-15,30-30,73-33,108c-5,69,68,33,100,12c23-16,42-37,63-61c56-66,94-124,130-185c9-15-16-39,0-40
		c8-1,82,5,90,8c27,11,3,28-10,57c-24,56-37,101-44,137c-6,28-12,82,2,106c17,28,60,19,134-39c92-75,163-159,189-260
		c9-33,11-68-5-101c-11-23-29-29-48-33c-8-1-22-2-28-5c-7-2-10-8,1-12c10-3,20-4,29-4c36-2,70,1,90,22c27,29,25,79,17,115
		c-6,31-21,62-41,96c-40,69-109,141-170,193c-35,32-72,57-114,66c-79,18-125-8-131-90c-2-31,0-70,8-120c-34,56-68,110-108,150
		c-41,41-98,72-157,52c-12-4-22-10-30-19C1121,1300,1141,1226,1157,1177z"/>
	<path fill="#E6E7E8" d="M703,561c68-2,105,26,126,69c-227-86-489,217-494,443c-28,380,332,387,533,185c206-208,289-495,237-664
		c-86-194-273-200-454-148c-258,92-343,222-411,355c-17,38-30,81-34,140c0,27-16,45-27-32c-9-84,32-175,102-271
		c52-70,115-125,189-168c131-75,260-103,408-78c140,24,226,83,289,212c59,122,31,282-19,402c-40,98-103,186-180,254
		c-95,85-197,141-310,155c-277,36-406-150-397-421c11-116,52-199,111-264C456,637,577,564,703,561z"/>
	<path fill="#FFFFFF" d="M3110.728,1274.873c31.509,0.5,56.479,28.977,55.773,63.604s-26.82,62.291-58.329,61.79
		c-31.508-0.5-56.479-28.977-55.773-63.604C3053.104,1302.037,3079.219,1274.372,3110.728,1274.873z"/>
	<path fill="#FFFFFF" d="M3019,113c-36-31-98-48-132-79c-11,127-8,255-54,388c-102,294-348,688-407,916c-8,31,32,11,35,13
		c2,2,12-9,31-35c170-225,332-316,551-280c4-63,15-122,19-184c-22-80-268,24-534,379c46-182,210-410,286-581
		C2907,441,2980,260,3019,113z"/>
	<path fill="#FFFFFF" d="M2701,1166c-8-5-20-2-10,9c65,56,101,122,218,212c15,6,34,0,41-9c9-11,24-53,19-67c-5-12-25-31-45-40
		C2846,1240,2776,1203,2701,1166z"/>
	
		<linearGradient id="SVGID_2_" gradientUnits="userSpaceOnUse" x1="3080.332" y1="2383.6973" x2="2635.6221" y2="1219.5433" gradientTransform="matrix(1 0 0 -1 0 2551)">
		<stop  offset="0" style="stop-color:#E65114"/>
		<stop  offset="1" style="stop-color:#ECAA73"/>
	</linearGradient>
	<path fill="url(#SVGID_2_)" d="M2983,129c-33-31-72-61-105-92c-13,126-34,266-81,397c-105,292-309,645-370,871c-17,61-19,68,21,16
		c169-221,349-347,561-307c5-63,10-126,15-189c-137,3-300,96-526,418c48-181,199-411,276-581C2868,455,2943,275,2983,129z"/>
	
		<linearGradient id="SVGID_3_" gradientUnits="userSpaceOnUse" x1="3097.6973" y1="1277.9746" x2="3064.4075" y2="1144.4446" gradientTransform="matrix(1 0 0 -1 0 2551)">
		<stop  offset="0" style="stop-color:#E65114"/>
		<stop  offset="1" style="stop-color:#ECAA73"/>
	</linearGradient>
	<circle fill="url(#SVGID_3_)" cx="3081" cy="1340" r="61"/>
	
		<linearGradient id="SVGID_4_" gradientUnits="userSpaceOnUse" x1="2829.4951" y1="1405.167" x2="2789.9248" y2="1144.6556" gradientTransform="matrix(1 0 0 -1 0 2551)">
		<stop  offset="0" style="stop-color:#E65114"/>
		<stop  offset="1" style="stop-color:#ECAA73"/>
	</linearGradient>
	<path fill="url(#SVGID_4_)" d="M2696,1166c-9-5-20-4-11,8c59,61,102,110,211,210c14,7,25,8,34,0c10-10,18-46,13-60
		c-4-12-15-24-35-34C2834,1252,2767,1210,2696,1166z"/>
	<path fill="#FFFFFF" d="M2058,886c-17,2-31,9-41,35c-36,149-20,316-131,388c-65,43-15,42,20,38c43-6,68-44,93-77
		c77-99,169-218,243-283c21-16,40-27,52-28c32-3,2,48-4,59c-30,55-48,97-60,133c-17,56-40,129,13,171c35,27,73,23,127-1
		c23-10-7-42-26-34c-48,29-40,13-48-17c-14-47,2-89,18-134c13-35,30-73,51-114c15-29,76-133,26-148c-52-16-126,48-162,81
		c-74,67-150,150-228,241c32-84,60-169,97-251C2116,904,2112,882,2058,886z"/>
	
		<linearGradient id="SVGID_5_" gradientUnits="userSpaceOnUse" x1="2098.3574" y1="1173.0845" x2="2098.3574" y2="1646.5249" gradientTransform="matrix(1 0 0 -1 0 2551)">
		<stop  offset="0" style="stop-color:#E65114"/>
		<stop  offset="1" style="stop-color:#ECAA73"/>
	</linearGradient>
	<path fill="url(#SVGID_5_)" d="M2013,920c-17,1-31,9-41,34c-36,150-86,265-131,388c-8,24-22,40,13,35c44-5,75-41,100-74
		c77-99,169-218,242-283c22-15,40-27,52-28c32-2,3,48-3,60c-30,54-48,97-60,132c-18,56-40,129,13,171c35,28,83,18,138-5
		c22-10,9-38-10-30c-48,29-67,14-75-16c-14-47,1-90,18-135c13-35,30-73,51-113c15-30,76-133,26-149c-52-16-126,48-162,81
		c-74,67-150,150-228,241c32-84,60-169,96-250C2071,937,2067,915,2013,920z"/>
	<path fill="#FFFFFF" d="M1150,1173c20-63,54-124,109-182c31-30-23-26,20-26c34,0,107,1,88,23c-13,15-31,31-46,47
		c-44,50-78,100-102,151c-14,31-30,74-32,108c-6,69,67,34,99,12c23-16,43-37,63-61c56-66,94-124,130-185c9-15-15-38,1-39
		c8-1,81,4,89,7c27,11,3,28-10,57c-23,56-37,101-44,137c-6,28-12,82,3,106c17,28,59,19,133-39c92-75,163-159,189-260
		c9-33,12-68-4-101c-12-23-30-29-49-33c-8-1-22-2-28-4c-7-3-10-9,1-13c10-3,20-4,30-4c36-2,69,1,89,22c28,29,26,79,18,115
		c-7,31-22,62-42,96c-39,69-109,141-169,194c-36,31-73,56-115,66c-79,17-124-9-131-91c-2-30,0-70,8-120c-34,56-68,110-108,150
		c-41,41-97,72-157,52c-11-4-21-10-30-19C1114,1296,1134,1222,1150,1173z"/>
	
		<linearGradient id="SVGID_6_" gradientUnits="userSpaceOnUse" x1="1477.0869" y1="1162.5762" x2="1477.0869" y2="1660.5239" gradientTransform="matrix(1 0 0 -1 0 2551)">
		<stop  offset="0" style="stop-color:#E65114"/>
		<stop  offset="1" style="stop-color:#ECAA73"/>
	</linearGradient>
	<path fill="url(#SVGID_6_)" d="M1111,1190c20-63,54-124,109-182c30-31,26-31,69-31c34,0,58,6,39,28c-13,15-31,30-46,47
		c-44,50-78,100-102,150c-14,31-30,74-32,109c-6,69,67,33,99,12c23-16,43-37,63-61c56-66,94-124,130-186c9-14,18-42,35-44
		c7,0,47,10,55,13c27,11,3,28-10,57c-23,56-37,100-44,137c-6,28-12,82,2,106c17,28,60,18,134-39c92-75,163-159,189-260
		c9-33,12-68-4-101c-12-23-30-29-49-33c-8-1-22-2-28-5c-7-2-10-8,1-12c10-4,20-4,30-4c36-2,69,1,89,22c28,29,25,79,18,115
		c-7,31-22,62-42,96c-39,69-109,141-169,193c-36,32-73,57-115,66c-79,18-125-8-131-90c-2-31,0-70,8-120c-34,56-68,110-108,150
		c-41,41-98,72-157,52c-11-4-21-10-30-19C1075,1313,1095,1239,1111,1190z"/>
	<path fill="#FFFFFF" d="M694,562c68-1,105,27,126,69c-227-86-489,218-494,443c-28,380,333,388,534,185c206-207,289-495,237-664
		c-87-194-274-200-454-147c-259,91-344,221-413,355c-16,37-30,80-34,139c1,27-15,45-26-32c-9-83,31-174,102-271
		c52-69,115-125,189-168c131-75,260-103,408-77c141,24,227,83,290,211c59,123,31,282-19,403c-41,98-103,185-180,254
		c-95,85-198,140-311,155c-277,36-406-151-397-421c10-116,52-199,111-265C447,639,568,565,694,562z"/>
	
		<linearGradient id="SVGID_7_" gradientUnits="userSpaceOnUse" x1="163.4365" y1="1564.4043" x2="1141.234" y2="1745.0642" gradientTransform="matrix(1 0 0 -1 0 2551)">
		<stop  offset="0" style="stop-color:#E65114"/>
		<stop  offset="1" style="stop-color:#ECAA73"/>
	</linearGradient>
	<path fill="url(#SVGID_7_)" d="M666,557c67-1,102,27,123,69c-221-86-477,217-482,443c-27,380,325,388,521,185
		c200-207,281-495,230-664c-84-194-266-200-442-147c-252,91-335,221-402,354c-16,38-30,93-34,152c9,21-5,26-25-44
		c-9-84,31-174,100-271c50-69,112-125,184-168c128-75,253-103,398-78c136,24,221,83,282,212c57,122,30,282-19,403
		c-39,98-100,185-175,254c-93,85-192,140-303,155c-269,35-396-151-387-421c10-116,51-200,108-265C425,634,543,560,666,557z"/>
</g>
</svg>
